<?xml version="1.0" encoding="UTF-8" standalone="no"?>
<svg
   xmlns:dc="http://purl.org/dc/elements/1.1/"
   xmlns:cc="http://creativecommons.org/ns#"
   xmlns:rdf="http://www.w3.org/1999/02/22-rdf-syntax-ns#"
   xmlns:svg="http://www.w3.org/2000/svg"
   xmlns="http://www.w3.org/2000/svg"
   xmlns:sodipodi="http://sodipodi.sourceforge.net/DTD/sodipodi-0.dtd"
   xmlns:inkscape="http://www.inkscape.org/namespaces/inkscape"
   id="svg8"
   version="1.1"
   viewBox="0 0 237.10008 351.10001"
   height="351.10001mm"
   width="237.10008mm"
   sodipodi:docname="Laser-Cut Box.svg"
   inkscape:version="1.0.1 (3bc2e813f5, 2020-09-07)">
  <defs
     id="defs2">
    <rect
       x="31.671439"
       y="35.413212"
       width="64.144687"
       height="20.847023"
       id="rect22946" />
  </defs>
  <sodipodi:namedview
     id="base"
     pagecolor="#ffffff"
     bordercolor="#666666"
     borderopacity="1.0"
     inkscape:pageopacity="0.0"
     inkscape:pageshadow="2"
     inkscape:zoom="0.7"
     inkscape:cx="294.50802"
     inkscape:cy="865.64684"
     inkscape:document-units="mm"
     inkscape:current-layer="layer1"
     inkscape:document-rotation="0"
     showgrid="false"
     inkscape:window-width="1920"
     inkscape:window-height="1017"
     inkscape:window-x="-8"
     inkscape:window-y="-8"
     inkscape:window-maximized="1" />
  <metadata
     id="metadata5">
    <rdf:RDF>
      <cc:Work
         rdf:about="">
        <dc:format>image/svg+xml</dc:format>
        <dc:type
           rdf:resource="http://purl.org/dc/dcmitype/StillImage" />
        <dc:title></dc:title>
      </cc:Work>
    </rdf:RDF>
  </metadata>
  <g
     inkscape:label="Layer 1"
     inkscape:groupmode="layer"
     id="layer1"
     transform="translate(45.05009,112.55)">
    <g
       id="box8563"
       transform="translate(-42,-109.5)">
      <path
         style="fill:none;stroke:#0000ff;stroke-width:0.1;stroke-linecap:butt;stroke-linejoin:miter"
         id="box8563-lid"
         d="m 0,0 h 3.95455 v -3 h 7.90909 v 3 h 3.95455 3.95455 v -3 h 7.90909 v 3 h 3.95455 3.95455 v -3 h 7.90909 v 3 h 3.95455 3.95455 v -3 h 7.90909 v 3 h 3.95455 3.95455 v -3 h 7.90909 v 3 h 3.95455 3.95455 v -3 h 7.90909 v 3 h 3.95455 3.95455 v -3 h 7.90909 v 3 h 3.95455 3.95455 v -3 h 7.90909 v 3 h 3.95455 3.95455 v -3 h 7.90909 v 3 h 3.95455 3.95455 v -3 h 7.90909 v 3 h 3.95455 3.95455 v -3 h 7.90909 v 3 h 3.95455 v 2.59091 h 3 v 5.18182 h -3 v 2.59091 2.59091 h 3 v 5.18182 h -3 v 2.59091 2.59091 h 3 v 5.18182 h -3 v 2.59091 2.59091 h 3 v 5.18182 h -3 v 2.59091 2.59091 h 3 v 5.18182 h -3 v 2.59091 2.59091 h 3 v 5.18182 h -3 v 2.59091 2.59091 h 3 v 5.18182 h -3 v 2.59091 2.59091 h 3 v 5.18182 h -3 v 2.59091 2.59091 h 3 v 5.18182 h -3 v 2.59091 2.59091 h 3 v 5.18182 h -3 v 2.59091 2.59091 h 3 v 5.18182 h -3 v 2.59091 h -3.95455 v 3 h -7.90909 v -3 h -3.95455 -3.95455 v 3 h -7.90909 v -3 h -3.95455 -3.95455 v 3 h -7.90909 v -3 h -3.95455 -3.95455 v 3 h -7.90909 v -3 h -3.95455 -3.95455 v 3 h -7.90909 v -3 h -3.95455 -3.95455 v 3 H 83.0455 v -3 H 79.09095 75.1364 v 3 h -7.90909 v -3 h -3.95455 -3.95455 v 3 h -7.90909 v -3 h -3.95455 -3.95455 v 3 h -7.90909 v -3 h -3.95455 -3.95455 v 3 h -7.90909 v -3 h -3.95455 -3.95455 v 3 H 3.95455 v -3 H 0 v -2.59091 h -3 v -5.18182 h 3 v -2.59091 -2.59091 H -3 V 95.86367 H 0 V 93.27276 90.68185 H -3 V 85.50003 H 0 V 82.90912 80.31821 H -3 V 75.13639 H 0 V 72.54548 69.95457 H -3 V 64.77275 H 0 V 62.18184 59.59093 H -3 V 54.40911 H 0 V 51.8182 49.22729 H -3 V 44.04547 H 0 V 41.45456 38.86365 H -3 V 33.68183 H 0 V 31.09092 28.50001 H -3 V 23.31819 H 0 V 20.72728 18.13637 H -3 V 12.95455 H 0 V 10.36364 7.77273 H -3 V 2.59091 H 0 V 0" />
      <path
         style="fill:none;stroke:#0000ff;stroke-width:0.1;stroke-linecap:butt;stroke-linejoin:miter"
         id="box8563-longside1"
         d="m -3,117 v -3 h 3 m 177,0 v 3 2.25 h -3 v 4.5 h 3 v 2.25 2.25 h -3 v 4.5 h 3 v 2.25 2.25 h -3 v 4.5 h 3 v 2.25 2.25 h -3 v 4.5 h 3 v 2.25 2.25 h -3 v 4.5 h 3 v 2.25 2.25 h -3 v 4.5 h 3 v 2.25 3 h -3 -3.95455 v -3 h -7.90909 v 3 h -3.95455 -3.95455 v -3 h -7.90909 v 3 h -3.95455 -3.95455 v -3 h -7.90909 v 3 h -3.95455 -3.95455 v -3 h -7.90909 v 3 h -3.95455 -3.95455 v -3 H 98.8636 v 3 H 94.90905 90.9545 v -3 h -7.90909 v 3 h -3.95455 -3.95455 v -3 h -7.90909 v 3 h -3.95455 -3.95455 v -3 h -7.90909 v 3 h -3.95455 -3.95455 v -3 h -7.90909 v 3 h -3.95455 -3.95455 v -3 h -7.90909 v 3 H 15.8181 11.86355 v -3 H 3.95446 v 3 H -9e-5 h -3 v -3 -2.25 h 3 v -4.5 h -3 V 162 159.75 h 3 v -4.5 h -3 V 153 150.75 h 3 v -4.5 h -3 V 144 141.75 h 3 v -4.5 h -3 V 135 132.75 h 3 v -4.5 h -3 V 126 123.75 h 3 v -4.5 h -3 V 117" />
      <path
         style="fill:none;stroke:#0000ff;stroke-width:0.1;stroke-linecap:butt;stroke-linejoin:miter"
         id="box8563-base"
         d="m 0,174 m 174,0 v 2.59091 h 3 v 5.18182 h -3 v 2.59091 2.59091 h 3 v 5.18182 h -3 v 2.59091 2.59091 h 3 v 5.18182 h -3 v 2.59091 2.59091 h 3 v 5.18182 h -3 v 2.59091 2.59091 h 3 v 5.18182 h -3 v 2.59091 2.59091 h 3 v 5.18182 h -3 v 2.59091 2.59091 h 3 v 5.18182 h -3 v 2.59091 2.59091 h 3 v 5.18182 h -3 v 2.59091 2.59091 h 3 v 5.18182 h -3 v 2.59091 2.59091 h 3 v 5.18182 h -3 v 2.59091 2.59091 h 3 v 5.18182 h -3 v 2.59091 h -3.95455 v 3 h -7.90909 v -3 h -3.95455 -3.95455 v 3 h -7.90909 v -3 h -3.95455 -3.95455 v 3 h -7.90909 v -3 h -3.95455 -3.95455 v 3 h -7.90909 v -3 h -3.95455 -3.95455 v 3 H 98.8636 v -3 H 94.90905 90.9545 v 3 h -7.90909 v -3 h -3.95455 -3.95455 v 3 h -7.90909 v -3 h -3.95455 -3.95455 v 3 h -7.90909 v -3 h -3.95455 -3.95455 v 3 h -7.90909 v -3 h -3.95455 -3.95455 v 3 h -7.90909 v -3 H 15.8181 11.86355 v 3 H 3.95446 v -3 H -9e-5 v -2.59091 h -3 v -5.18182 h 3 v -2.59091 -2.59091 h -3 v -5.18182 h 3 v -2.59091 -2.59091 h -3 v -5.18182 h 3 v -2.59091 -2.59091 h -3 v -5.18182 h 3 v -2.59091 -2.59091 h -3 v -5.18182 h 3 v -2.59091 -2.59091 h -3 v -5.18182 h 3 v -2.59091 -2.59091 h -3 v -5.18182 h 3 v -2.59091 -2.59091 h -3 v -5.18182 h 3 v -2.59091 -2.59091 h -3 v -5.18182 h 3 v -2.59091 -2.59091 h -3 v -5.18182 h 3 v -2.59091 -2.59091 h -3 v -5.18182 h 3 V 174" />
      <path
         style="fill:none;stroke:#0000ff;stroke-width:0.1;stroke-linecap:butt;stroke-linejoin:miter"
         id="box8563-longside2"
         d="m -3,291 v -3 h 3 m 177,0 v 3 2.25 h -3 v 4.5 h 3 v 2.25 2.25 h -3 v 4.5 h 3 v 2.25 2.25 h -3 v 4.5 h 3 v 2.25 2.25 h -3 v 4.5 h 3 v 2.25 2.25 h -3 v 4.5 h 3 v 2.25 2.25 h -3 v 4.5 h 3 v 2.25 3 h -3 -3.95455 v -3 h -7.90909 v 3 h -3.95455 -3.95455 v -3 h -7.90909 v 3 h -3.95455 -3.95455 v -3 h -7.90909 v 3 h -3.95455 -3.95455 v -3 h -7.90909 v 3 h -3.95455 -3.95455 v -3 H 98.8636 v 3 H 94.90905 90.9545 v -3 h -7.90909 v 3 h -3.95455 -3.95455 v -3 h -7.90909 v 3 h -3.95455 -3.95455 v -3 h -7.90909 v 3 h -3.95455 -3.95455 v -3 h -7.90909 v 3 h -3.95455 -3.95455 v -3 h -7.90909 v 3 H 15.8181 11.86355 v -3 H 3.95446 v 3 H -9e-5 h -3 v -3 -2.25 h 3 v -4.5 h -3 V 336 333.75 h 3 v -4.5 h -3 V 327 324.75 h 3 v -4.5 h -3 V 318 315.75 h 3 v -4.5 h -3 V 309 306.75 h 3 v -4.5 h -3 V 300 297.75 h 3 v -4.5 h -3 V 291" />
      <path
         style="fill:none;stroke:#0000ff;stroke-width:0.1;stroke-linecap:butt;stroke-linejoin:miter"
         id="box8563-endface2"
         d="m 174,0 h 3 2.25 v -3 h 4.5 v 3 h 2.25 2.25 v -3 h 4.5 v 3 h 2.25 2.25 v -3 h 4.5 v 3 h 2.25 2.25 v -3 h 4.5 v 3 h 2.25 2.25 v -3 h 4.5 v 3 h 2.25 2.25 v -3 h 4.5 v 3 h 2.25 3 v 2.59091 h -3 v 5.18182 h 3 v 2.59091 2.59091 h -3 v 5.18182 h 3 v 2.59091 2.59091 h -3 v 5.18182 h 3 v 2.59091 2.59091 h -3 v 5.18182 h 3 v 2.59091 2.59091 h -3 v 5.18182 h 3 v 2.59091 2.59091 h -3 v 5.18182 h 3 v 2.59091 2.59091 h -3 v 5.18182 h 3 v 2.59091 2.59091 h -3 v 5.18182 h 3 v 2.59091 2.59091 h -3 v 5.18182 h 3 v 2.59091 2.59091 h -3 v 5.18182 h 3 v 2.59091 2.59091 h -3 v 5.18182 h 3 v 2.59091 h -3 -2.25 v 3 h -4.5 v -3 H 222 219.75 v 3 h -4.5 v -3 H 213 210.75 v 3 h -4.5 v -3 H 204 201.75 v 3 h -4.5 v -3 H 195 192.75 v 3 h -4.5 v -3 H 186 183.75 v 3 h -4.5 v -3 H 177 174" />
      <path
         style="fill:none;stroke:#0000ff;stroke-width:0.1;stroke-linecap:butt;stroke-linejoin:miter"
         id="box8563-endface1"
         d="m 174,174 m 3,0 h 2.25 v -3 h 4.5 v 3 h 2.25 2.25 v -3 h 4.5 v 3 h 2.25 2.25 v -3 h 4.5 v 3 h 2.25 2.25 v -3 h 4.5 v 3 h 2.25 2.25 v -3 h 4.5 v 3 h 2.25 2.25 v -3 h 4.5 v 3 h 2.25 3 v 2.59091 h -3 v 5.18182 h 3 v 2.59091 2.59091 h -3 v 5.18182 h 3 v 2.59091 2.59091 h -3 v 5.18182 h 3 v 2.59091 2.59091 h -3 v 5.18182 h 3 v 2.59091 2.59091 h -3 v 5.18182 h 3 v 2.59091 2.59091 h -3 v 5.18182 h 3 v 2.59091 2.59091 h -3 v 5.18182 h 3 v 2.59091 2.59091 h -3 v 5.18182 h 3 v 2.59091 2.59091 h -3 v 5.18182 h 3 v 2.59091 2.59091 h -3 v 5.18182 h 3 v 2.59091 2.59091 h -3 v 5.18182 h 3 v 2.59091 h -3 -2.25 v 3 h -4.5 v -3 H 222 219.75 v 3 h -4.5 v -3 H 213 210.75 v 3 h -4.5 v -3 H 204 201.75 v 3 h -4.5 v -3 H 195 192.75 v 3 h -4.5 v -3 H 186 183.75 v 3 h -4.5 v -3 H 177 174" />
    </g>
    <text
       xml:space="preserve"
       style="font-style:normal;font-weight:normal;font-size:10.5833px;line-height:1.25;font-family:sans-serif;fill:#000000;fill-opacity:1;stroke:none;stroke-width:0.264583"
       x="-16.777468"
       y="221.48648"
       id="text2398"><tspan
         sodipodi:role="line"
         id="tspan2396"
         x="-16.777468"
         y="221.48648"
         style="stroke-width:0.264583">Víðir Davíð Krogsgaard</tspan></text>
    <g
       id="g2540"
       transform="matrix(-0.88016531,0,0,-0.89306792,99.88792,64.966695)">
      <g
         inkscape:label="Layer 1"
         id="layer1-9">
        <rect
           style="fill:#000000;fill-opacity:1;stroke-width:0.0451587"
           id="rect1530"
           width="32.339611"
           height="1.471532"
           x="45"
           y="17.372519" />
        <rect
           style="fill:#000000;fill-opacity:1;stroke-width:0.0451588"
           id="rect1530-9"
           width="32.339611"
           height="1.471532"
           x="-78.585487"
           y="15.537598"
           transform="rotate(-138.70696)" />
        <rect
           style="fill:#000000;fill-opacity:1;stroke-width:0.0451588"
           id="rect1530-9-3"
           width="32.339611"
           height="1.471532"
           x="13.333683"
           y="-65.195587"
           transform="matrix(0.7513443,-0.6599104,-0.6599104,-0.7513443,0,0)" />
        <rect
           style="fill:#000000;fill-opacity:1;stroke-width:0.0572572"
           id="rect1530-5"
           width="51.988857"
           height="1.471532"
           x="11.874834"
           y="-61.999565"
           transform="rotate(90)" />
        <rect
           style="fill:#000000;fill-opacity:1;stroke-width:0.0451588"
           id="rect1530-9-7"
           width="32.339611"
           height="1.471532"
           x="-96.088829"
           y="13.212841"
           transform="rotate(-131.40167)" />
        <rect
           style="fill:#000000;fill-opacity:1;stroke-width:0.0451588"
           id="rect1530-9-7-7"
           width="32.339611"
           height="1.471532"
           x="-15.181516"
           y="-78.553101"
           transform="matrix(0.66133373,-0.75009179,-0.75009179,-0.66133373,0,0)" />
        <rect
           style="fill:#000000;fill-opacity:1;stroke-width:0.0559779"
           id="rect1530-9-3-9"
           width="46.286465"
           height="1.5797892"
           x="-1.3580381"
           y="-78.986382"
           transform="matrix(0.2860087,-0.95822702,-0.62225468,-0.78281487,0,0)" />
        <rect
           style="fill:#000000;fill-opacity:1;stroke-width:0.0557825"
           id="rect1530-9-3-9-6"
           width="46.230247"
           height="1.5706863"
           x="-119.41786"
           y="64.733109"
           transform="matrix(-0.28207542,-0.95939223,0.61650419,-0.78735163,0,0)" />
        <rect
           style="fill:#000000;fill-opacity:1;stroke-width:0.0283423"
           id="rect1530-5-1"
           width="20.443562"
           height="0.91693091"
           x="-71.530586"
           y="-39.656128"
           transform="scale(-1)" />
        <ellipse
           style="fill:#000000;fill-opacity:1;stroke-width:0.264583"
           id="path1667"
           cx="61.338356"
           cy="13.814493"
           rx="3.3742776"
           ry="3.6916604" />
        <path
           sodipodi:type="spiral"
           style="fill:none;fill-rule:evenodd;stroke:#000000;stroke-width:0.264583"
           id="path1689"
           sodipodi:cx="60.854164"
           sodipodi:cy="13.890625"
           sodipodi:expansion="1"
           sodipodi:revolution="3"
           sodipodi:radius="9.4762964"
           sodipodi:argument="-18.331415"
           sodipodi:t0="0"
           d="m 60.854164,13.890625 c 0.412762,0.235314 -0.113556,0.672491 -0.391107,0.686038 -0.752146,0.03671 -1.114799,-0.840272 -0.980968,-1.468252 0.239391,-1.12331 1.529114,-1.600362 2.545396,-1.275899 1.491436,0.476163 2.096953,2.226086 1.57083,3.622541 -0.70124,1.861256 -2.925784,2.59804 -4.699686,1.86576 -2.232275,-0.921499 -3.101412,-3.626742 -2.160691,-5.776831 1.13934,-2.6040447 4.328404,-3.606099 6.853976,-2.4556207 2.976299,1.3557987 4.111611,5.0305007 2.750551,7.9311207 -1.571397,3.34888 -5.732889,4.617674 -9.008265,3.045482 C 53.61251,18.27854 52.210078,13.629481 53.993787,9.9795539 55.99484,5.8848873 61.132014,4.3487043 65.156342,6.3442106 69.62411,8.5596009 71.294129,14.185294 69.086616,18.58391" />
      </g>
      <g
         id="layer3"
         inkscape:label="Layer 2"
         style="opacity:0.632258" />
    </g>
  </g>
</svg>
