<?xml version="1.0" encoding="UTF-8" standalone="no"?>
<svg
   xmlns:dc="http://purl.org/dc/elements/1.1/"
   xmlns:cc="http://creativecommons.org/ns#"
   xmlns:rdf="http://www.w3.org/1999/02/22-rdf-syntax-ns#"
   xmlns:svg="http://www.w3.org/2000/svg"
   xmlns="http://www.w3.org/2000/svg"
   xmlns:sodipodi="http://sodipodi.sourceforge.net/DTD/sodipodi-0.dtd"
   xmlns:inkscape="http://www.inkscape.org/namespaces/inkscape"
   width="120mm"
   height="180mm"
   viewBox="0 0 120 180"
   version="1.1"
   id="svg193"
   inkscape:version="1.0.1 (3bc2e813f5, 2020-09-07)"
   sodipodi:docname="VESM_Logo_VDK.svg">
  <defs
     id="defs187">
    <rect
       x="31.671439"
       y="35.413212"
       width="64.144687"
       height="20.847023"
       id="rect22946" />
  </defs>
  <sodipodi:namedview
     id="base"
     pagecolor="#ffffff"
     bordercolor="#666666"
     borderopacity="1.0"
     inkscape:pageopacity="0.0"
     inkscape:pageshadow="2"
     inkscape:zoom="1.4"
     inkscape:cx="151.08219"
     inkscape:cy="144.10463"
     inkscape:document-units="mm"
     inkscape:current-layer="layer1"
     inkscape:document-rotation="0"
     showgrid="false"
     inkscape:window-width="1920"
     inkscape:window-height="1017"
     inkscape:window-x="-8"
     inkscape:window-y="-8"
     inkscape:window-maximized="1" />
  <metadata
     id="metadata190">
    <rdf:RDF>
      <cc:Work
         rdf:about="">
        <dc:format>image/svg+xml</dc:format>
        <dc:type
           rdf:resource="http://purl.org/dc/dcmitype/StillImage" />
        <dc:title></dc:title>
      </cc:Work>
    </rdf:RDF>
  </metadata>
  <g
     inkscape:label="Layer 1"
     inkscape:groupmode="layer"
     id="layer1">
    <rect
       style="fill:#000000;fill-opacity:1;stroke-width:0.0451587"
       id="rect1530"
       width="32.339611"
       height="1.471532"
       x="45"
       y="17.372519" />
    <rect
       style="fill:#000000;fill-opacity:1;stroke-width:0.0451588"
       id="rect1530-9"
       width="32.339611"
       height="1.471532"
       x="-78.585487"
       y="15.537598"
       transform="rotate(-138.70696)" />
    <rect
       style="fill:#000000;fill-opacity:1;stroke-width:0.0451588"
       id="rect1530-9-3"
       width="32.339611"
       height="1.471532"
       x="13.333683"
       y="-65.195587"
       transform="matrix(0.7513443,-0.6599104,-0.6599104,-0.7513443,0,0)" />
    <rect
       style="fill:#000000;fill-opacity:1;stroke-width:0.0572572"
       id="rect1530-5"
       width="51.988857"
       height="1.471532"
       x="11.874834"
       y="-61.999565"
       transform="rotate(90)" />
    <rect
       style="fill:#000000;fill-opacity:1;stroke-width:0.0451588"
       id="rect1530-9-7"
       width="32.339611"
       height="1.471532"
       x="-96.088829"
       y="13.212841"
       transform="rotate(-131.40167)" />
    <rect
       style="fill:#000000;fill-opacity:1;stroke-width:0.0451588"
       id="rect1530-9-7-7"
       width="32.339611"
       height="1.471532"
       x="-15.181516"
       y="-78.553101"
       transform="matrix(0.66133373,-0.75009179,-0.75009179,-0.66133373,0,0)" />
    <rect
       style="fill:#000000;fill-opacity:1;stroke-width:0.0559779"
       id="rect1530-9-3-9"
       width="46.286465"
       height="1.5797892"
       x="-1.3580381"
       y="-78.986382"
       transform="matrix(0.2860087,-0.95822702,-0.62225468,-0.78281487,0,0)" />
    <rect
       style="fill:#000000;fill-opacity:1;stroke-width:0.0557825"
       id="rect1530-9-3-9-6"
       width="46.230247"
       height="1.5706863"
       x="-119.41786"
       y="64.733109"
       transform="matrix(-0.28207542,-0.95939223,0.61650419,-0.78735163,0,0)" />
    <rect
       style="fill:#000000;fill-opacity:1;stroke-width:0.0283423"
       id="rect1530-5-1"
       width="20.443562"
       height="0.91693091"
       x="-71.530586"
       y="-39.656128"
       transform="scale(-1)" />
    <ellipse
       style="fill:#000000;fill-opacity:1;stroke-width:0.264583"
       id="path1667"
       cx="61.338356"
       cy="13.814493"
       rx="3.3742776"
       ry="3.6916604" />
    <path
       sodipodi:type="spiral"
       style="fill:none;fill-rule:evenodd;stroke:#000000;stroke-width:0.264583"
       id="path1689"
       sodipodi:cx="60.854164"
       sodipodi:cy="13.890625"
       sodipodi:expansion="1"
       sodipodi:revolution="3"
       sodipodi:radius="9.4762964"
       sodipodi:argument="-18.331415"
       sodipodi:t0="0"
       d="m 60.854164,13.890625 c 0.412762,0.235314 -0.113556,0.672491 -0.391107,0.686038 -0.752146,0.03671 -1.114799,-0.840272 -0.980968,-1.468252 0.239391,-1.12331 1.529114,-1.600362 2.545396,-1.275899 1.491436,0.476163 2.096953,2.226086 1.57083,3.622541 -0.70124,1.861256 -2.925784,2.59804 -4.699686,1.86576 -2.232275,-0.921499 -3.101412,-3.626742 -2.160691,-5.776831 1.13934,-2.6040447 4.328404,-3.606099 6.853976,-2.4556207 2.976299,1.3557987 4.111611,5.0305007 2.750551,7.9311207 -1.571397,3.34888 -5.732889,4.617674 -9.008265,3.045482 C 53.61251,18.27854 52.210078,13.629481 53.993787,9.9795539 55.99484,5.8848873 61.132014,4.3487043 65.156342,6.3442106 69.62411,8.5596009 71.294129,14.185294 69.086616,18.58391" />
  </g>
  <g
     inkscape:groupmode="layer"
     id="layer3"
     inkscape:label="Layer 2"
     style="opacity:0.63225806" />
</svg>
