<?xml version="1.0" encoding="UTF-8" standalone="no"?>
<svg
   xmlns:dc="http://purl.org/dc/elements/1.1/"
   xmlns:cc="http://creativecommons.org/ns#"
   xmlns:rdf="http://www.w3.org/1999/02/22-rdf-syntax-ns#"
   xmlns:svg="http://www.w3.org/2000/svg"
   xmlns="http://www.w3.org/2000/svg"
   xmlns:sodipodi="http://sodipodi.sourceforge.net/DTD/sodipodi-0.dtd"
   xmlns:inkscape="http://www.inkscape.org/namespaces/inkscape"
   width="365.02188mm"
   height="267.68988mm"
   viewBox="0 0 365.02187 267.68988"
   version="1.1"
   id="svg8"
   sodipodi:docname="Jolatre - VDK.svg"
   inkscape:version="1.0.1 (3bc2e813f5, 2020-09-07)">
  <defs
     id="defs2" />
  <sodipodi:namedview
     id="base"
     pagecolor="#ffffff"
     bordercolor="#666666"
     borderopacity="1.0"
     inkscape:pageopacity="0.0"
     inkscape:pageshadow="2"
     inkscape:zoom="0.7"
     inkscape:cx="386.94894"
     inkscape:cy="462.51278"
     inkscape:document-units="mm"
     inkscape:current-layer="layer1"
     inkscape:document-rotation="0"
     showgrid="false"
     inkscape:window-width="1920"
     inkscape:window-height="1017"
     inkscape:window-x="-8"
     inkscape:window-y="-8"
     inkscape:window-maximized="1" />
  <metadata
     id="metadata5">
    <rdf:RDF>
      <cc:Work
         rdf:about="">
        <dc:format>image/svg+xml</dc:format>
        <dc:type
           rdf:resource="http://purl.org/dc/dcmitype/StillImage" />
        <dc:title />
      </cc:Work>
    </rdf:RDF>
  </metadata>
  <g
     inkscape:label="Layer 1"
     inkscape:groupmode="layer"
     id="layer1"
     style="display:inline"
     transform="translate(173.96471,-24.466829)">
    <circle
       style="fill:#fffff9;fill-opacity:1;stroke:#000000;stroke-width:0.264583;stroke-opacity:1"
       id="path975"
       cx="-12.302125"
       cy="163.94003"
       r="10" />
    <g
       id="g1112">
      <path
         style="fill:none;stroke:#000000;stroke-width:0.779975px;stroke-linecap:butt;stroke-linejoin:miter;stroke-opacity:1"
         d="m 104.81925,40.635104 -56.763577,75.685716 38.875271,-14.39496 -45.71009,76.77257 45.567936,-24.48794 -59.246451,75.27192 64.900976,-33.23685 -73.569537,83.38984 73.065439,-29.03065 -1.150141,41.15999 19.177914,-0.0945"
         id="path835"
         sodipodi:nodetypes="ccccccccccc" />
      <circle
         style="display:inline;fill:#fffff9;fill-opacity:1;stroke:#000000;stroke-width:0.264583;stroke-opacity:1"
         id="path901-9"
         cx="72.286919"
         cy="97.083687"
         r="5" />
      <circle
         style="display:inline;fill:#fffff9;fill-opacity:1;stroke:#000000;stroke-width:0.264583;stroke-opacity:1"
         id="path901-9-6"
         cx="64.125023"
         cy="156.08282"
         r="5" />
      <circle
         style="display:inline;fill:#fffff9;fill-opacity:1;stroke:#000000;stroke-width:0.264583;stroke-opacity:1"
         id="path901-9-9"
         cx="55.606449"
         cy="205.64694"
         r="5" />
      <circle
         style="display:inline;fill:#fffff9;fill-opacity:1;stroke:#000000;stroke-width:0.264583;stroke-opacity:1"
         id="path901-9-0"
         cx="51.764843"
         cy="257.20566"
         r="5" />
      <path
         style="display:inline;fill:none;stroke:#000000;stroke-width:0.779976px;stroke-linecap:butt;stroke-linejoin:miter;stroke-opacity:1"
         d="m 104.81925,40.635104 56.76358,75.685726 -38.87527,-14.39496 45.71009,76.77257 -45.56794,-24.48794 59.24645,75.27192 -64.90098,-33.23685 73.56955,83.38984 -73.06545,-29.03065 1.15015,41.15999 -19.17792,-0.0945"
         id="path835-8"
         sodipodi:nodetypes="ccccccccccc" />
      <circle
         style="display:inline;fill:#fffff9;fill-opacity:1;stroke:#000000;stroke-width:0.264583;stroke-opacity:1"
         id="path901-9-8"
         cx="-137.35158"
         cy="97.083687"
         r="5"
         transform="scale(-1,1)" />
      <circle
         style="display:inline;fill:#fffff9;fill-opacity:1;stroke:#000000;stroke-width:0.264583;stroke-opacity:1"
         id="path901-9-6-7"
         cx="-145.51347"
         cy="156.08284"
         r="5"
         transform="scale(-1,1)" />
      <circle
         style="display:inline;fill:#fffff9;fill-opacity:1;stroke:#000000;stroke-width:0.264583;stroke-opacity:1"
         id="path901-9-9-4"
         cx="-154.03204"
         cy="205.64694"
         r="5"
         transform="scale(-1,1)" />
      <circle
         style="display:inline;fill:#fffff9;fill-opacity:1;stroke:#000000;stroke-width:0.264583;stroke-opacity:1"
         id="path901-9-0-7"
         cx="-157.87366"
         cy="257.20566"
         r="5"
         transform="scale(-1,1)" />
      <path
         sodipodi:type="star"
         style="fill:#ffffff;fill-opacity:1;stroke:#000000;stroke-opacity:1"
         id="path869"
         sodipodi:sides="5"
         sodipodi:cx="105.66085"
         sodipodi:cy="39.212738"
         sodipodi:r1="13.628125"
         sodipodi:r2="6.8140626"
         sodipodi:arg1="0.98279372"
         sodipodi:arg2="1.6111123"
         inkscape:flatsided="false"
         inkscape:rounded="0"
         inkscape:randomized="0"
         d="m 113.22037,50.552024 -7.83416,-4.53076 -8.17364,3.88504 1.888119,-8.850815 -6.220686,-6.573049 9.001087,-0.939345 4.32904,-7.947408 3.67486,8.270268 8.89618,1.661281 -6.7299,6.050651 z"
         inkscape:transform-center-x="-0.16973703"
         inkscape:transform-center-y="-1.1388833" />
      <circle
         style="fill:#fffff9;fill-opacity:1;stroke:#000000;stroke-width:0.264583;stroke-opacity:1"
         id="path901"
         cx="105.6147"
         cy="39.567059"
         r="5" />
    </g>
    <g
       id="box3276"
       transform="translate(-170.91471,42.832995)">
      <path
         style="fill:none;stroke:#0000ff;stroke-width:0.1;stroke-linecap:butt;stroke-linejoin:miter"
         id="box3276-lid"
         d="m 0,0 h 4.42857 v -3 h 8.85714 v 3 h 4.42857 4.42857 v -3 h 8.85714 v 3 h 4.42857 4.42857 v -3 h 8.85714 v 3 h 4.42857 4.42857 v -3 h 8.85714 v 3 h 4.42857 4.42857 v -3 h 8.85714 v 3 h 4.42857 4.42857 v -3 h 8.85714 v 3 h 4.42857 4.42857 v -3 h 8.85714 v 3 h 4.42857 v 2.125 h 3 v 4.25 h -3 V 8.5 10.625 h 3 v 4.25 h -3 V 17 19.125 h 3 v 4.25 h -3 v 2.125 2.125 h 3 v 4.25 h -3 V 34 h -4.42857 v 3 h -8.85714 v -3 h -4.42857 -4.42857 v 3 H 92.99997 V 34 H 88.5714 84.14283 v 3 h -8.85714 v -3 h -4.42857 -4.42857 v 3 h -8.85714 v -3 h -4.42857 -4.42857 v 3 h -8.85714 v -3 h -4.42857 -4.42857 v 3 h -8.85714 v -3 h -4.42857 -4.42857 v 3 H 4.42857 V 34 H 0 v -2.125 h -3 v -4.25 H 0 V 25.5 23.375 h -3 v -4.25 H 0 V 17 14.875 h -3 v -4.25 H 0 V 8.5 6.375 H -3 V 2.125 H 0 V 0" />
      <path
         style="fill:none;stroke:#0000ff;stroke-width:0.1;stroke-linecap:butt;stroke-linejoin:miter"
         id="box3276-longside1"
         d="m -3,37 v -3 h 3 m 127,0 v 3 3.2 h -3 v 6.4 h 3 v 3.2 3.2 h -3 v 6.4 h 3 v 3.2 3.2 h -3 v 6.4 h 3 v 3.2 3.2 h -3 V 85 h 3 v 3.2 3.2 h -3 v 6.4 h 3 v 3.2 3 h -3 -4.42857 v -3 h -8.85714 v 3 h -4.42857 -4.42857 v -3 h -8.85714 v 3 h -4.42857 -4.42857 v -3 h -8.85714 v 3 h -4.42857 -4.42857 v -3 h -8.85714 v 3 h -4.42857 -4.42857 v -3 h -8.85714 v 3 H 35.4286 31.00003 v -3 h -8.85714 v 3 h -4.42857 -4.42857 v -3 H 4.42861 v 3 H 4e-5 h -3 v -3 -3.2 h 3 v -6.4 h -3 V 88.2 85 h 3 v -6.4 h -3 v -3.2 -3.2 h 3 v -6.4 h -3 v -3.2 -3.2 h 3 V 53 h -3 v -3.2 -3.2 h 3 v -6.4 h -3 V 37" />
      <path
         style="fill:none;stroke:#0000ff;stroke-width:0.1;stroke-linecap:butt;stroke-linejoin:miter"
         id="box3276-base"
         d="m 0,104 m 124,0 v 2.125 h 3 v 4.25 h -3 v 2.125 2.125 h 3 v 4.25 h -3 v 2.125 2.125 h 3 v 4.25 h -3 v 2.125 2.125 h 3 v 4.25 h -3 V 138 h -4.42857 v 3 h -8.85714 v -3 h -4.42857 -4.42857 v 3 h -8.85714 v -3 h -4.42857 -4.42857 v 3 h -8.85714 v -3 h -4.42857 -4.42857 v 3 h -8.85714 v -3 h -4.42857 -4.42857 v 3 h -8.85714 v -3 H 35.4286 31.00003 v 3 h -8.85714 v -3 h -4.42857 -4.42857 v 3 H 4.42861 v -3 H 4e-5 v -2.125 h -3 v -4.25 h 3 v -2.125 -2.125 h -3 v -4.25 h 3 V 121 118.875 h -3 v -4.25 h 3 v -2.125 -2.125 h -3 v -4.25 h 3 V 104" />
      <path
         style="fill:none;stroke:#0000ff;stroke-width:0.1;stroke-linecap:butt;stroke-linejoin:miter"
         id="box3276-longside2"
         d="m -3,141 v -3 h 3 m 127,0 v 3 3.2 h -3 v 6.4 h 3 v 3.2 3.2 h -3 v 6.4 h 3 v 3.2 3.2 h -3 v 6.4 h 3 v 3.2 3.2 h -3 v 6.4 h 3 v 3.2 3.2 h -3 v 6.4 h 3 v 3.2 3 h -3 -4.42857 v -3 h -8.85714 v 3 h -4.42857 -4.42857 v -3 h -8.85714 v 3 h -4.42857 -4.42857 v -3 h -8.85714 v 3 h -4.42857 -4.42857 v -3 h -8.85714 v 3 h -4.42857 -4.42857 v -3 h -8.85714 v 3 H 35.4286 31.00003 v -3 h -8.85714 v 3 h -4.42857 -4.42857 v -3 H 4.42861 v 3 H 4e-5 h -3 v -3 -3.2 h 3 v -6.4 h -3 v -3.2 -3.2 h 3 v -6.4 h -3 v -3.2 -3.2 h 3 v -6.4 h -3 v -3.2 -3.2 h 3 V 157 h -3 v -3.2 -3.2 h 3 v -6.4 h -3 V 141" />
      <path
         style="fill:none;stroke:#0000ff;stroke-width:0.1;stroke-linecap:butt;stroke-linejoin:miter"
         id="box3276-endface2"
         d="m 124,0 h 3 3.2 v -3 h 6.4 v 3 h 3.2 3.2 v -3 h 6.4 v 3 h 3.2 3.2 v -3 h 6.4 v 3 h 3.2 3.2 v -3 h 6.4 v 3 h 3.2 3.2 v -3 h 6.4 v 3 h 3.2 3 v 2.125 h -3 v 4.25 h 3 V 8.5 10.625 h -3 v 4.25 h 3 V 17 19.125 h -3 v 4.25 h 3 v 2.125 2.125 h -3 v 4.25 h 3 V 34 h -3 -3.2 v 3 h -6.4 v -3 h -3.2 -3.2 v 3 h -6.4 v -3 h -3.2 -3.2 v 3 h -6.4 v -3 h -3.2 -3.2 v 3 H 143 v -3 h -3.2 -3.2 v 3 h -6.4 v -3 h -3.2 -3" />
      <path
         style="fill:none;stroke:#0000ff;stroke-width:0.1;stroke-linecap:butt;stroke-linejoin:miter"
         id="box3276-endface1"
         d="m 124,104 m 3,0 h 3.2 v -3 h 6.4 v 3 h 3.2 3.2 v -3 h 6.4 v 3 h 3.2 3.2 v -3 h 6.4 v 3 h 3.2 3.2 v -3 h 6.4 v 3 h 3.2 3.2 v -3 h 6.4 v 3 h 3.2 3 v 2.125 h -3 v 4.25 h 3 v 2.125 2.125 h -3 v 4.25 h 3 v 2.125 2.125 h -3 v 4.25 h 3 v 2.125 2.125 h -3 v 4.25 h 3 V 138 h -3 -3.2 v 3 h -6.4 v -3 h -3.2 -3.2 v 3 h -6.4 v -3 h -3.2 -3.2 v 3 h -6.4 v -3 h -3.2 -3.2 v 3 H 143 v -3 h -3.2 -3.2 v 3 h -6.4 v -3 h -3.2 -3" />
    </g>
  </g>
</svg>
